<svg xmlns="http://www.w3.org/2000/svg" version="1.1" xmlns:xlink="http://www.w3.org/1999/xlink" xmlns:svgjs="http://svgjs.dev/svgjs" width="1920" height="1080" preserveAspectRatio="none" viewBox="0 0 1920 1080"><g mask="url(&quot;#SvgjsMask4158&quot;)" fill="none"><rect width="1920" height="1080" x="0" y="0" fill="url(&quot;#SvgjsLinearGradient4159&quot;)"></rect><path d="M1129.56 742.2 a183.15 183.15 0 1 0 366.3 0 a183.15 183.15 0 1 0 -366.3 0z" fill="rgba(255, 255, 255, 0.4)" class="triangle-float3"></path><path d="M-62.52 846.46 a196.92 196.92 0 1 0 393.84 0 a196.92 196.92 0 1 0 -393.84 0z" fill="rgba(255, 255, 255, 0.4)" class="triangle-float3"></path><path d="M1557.18 488.3 a217.09 217.09 0 1 0 434.18 0 a217.09 217.09 0 1 0 -434.18 0z" fill="rgba(255, 255, 255, 0.4)" class="triangle-float2"></path><path d="M327.17 460.22 a274.55 274.55 0 1 0 549.1 0 a274.55 274.55 0 1 0 -549.1 0z" fill="rgba(255, 255, 255, 0.4)" class="triangle-float2"></path><path d="M734.24 27.74 a308.09 308.09 0 1 0 616.18 0 a308.09 308.09 0 1 0 -616.18 0z" fill="rgba(255, 255, 255, 0.4)" class="triangle-float2"></path></g><defs><mask id="SvgjsMask4158"><rect width="1920" height="1080" fill="#ffffff"></rect></mask><linearGradient x1="10.94%" y1="-19.44%" x2="89.06%" y2="119.44%" gradientUnits="userSpaceOnUse" id="SvgjsLinearGradient4159"><stop stop-color="rgba(183, 227, 255, 1)" offset="0"></stop><stop stop-color="rgba(25, 127, 202, 1)" offset="1"></stop></linearGradient><style>
                @keyframes float1 {
                    0%{transform: translate(0, 0)}
                    50%{transform: translate(-10px, 0)}
                    100%{transform: translate(0, 0)}
                }

                .triangle-float1 {
                    animation: float1 5s infinite;
                }

                @keyframes float2 {
                    0%{transform: translate(0, 0)}
                    50%{transform: translate(-5px, -5px)}
                    100%{transform: translate(0, 0)}
                }

                .triangle-float2 {
                    animation: float2 4s infinite;
                }

                @keyframes float3 {
                    0%{transform: translate(0, 0)}
                    50%{transform: translate(0, -10px)}
                    100%{transform: translate(0, 0)}
                }

                .triangle-float3 {
                    animation: float3 6s infinite;
                }
            </style></defs></svg>