<?xml version="1.0" standalone="no"?><!DOCTYPE svg PUBLIC "-//W3C//DTD SVG 1.1//EN" "http://www.w3.org/Graphics/SVG/1.1/DTD/svg11.dtd"><svg t="1746027936637" class="icon" viewBox="0 0 1210 1024" version="1.1" xmlns="http://www.w3.org/2000/svg" p-id="6702" xmlns:xlink="http://www.w3.org/1999/xlink" width="236.328125" height="200"><path d="M1012.720372 616.075204c-5.250641-0.500061-10.376267-1.250153-15.501892-2.125259-1.125137-0.125015-2.250275-0.250031-3.375413-0.500061-2.37529-0.375046-4.625565-1.000122-7.000854-1.625198-10.001221-2.125259-19.627396-4.875595-29.003541-8.376023v133.266268H226.374382V603.448663c-9.376145 3.500427-19.00232 6.250763-29.00354 8.501038-2.37529 0.375046-4.625565 1.000122-7.000855 1.500183-1.125137 0.250031-2.125259 0.375046-3.375412 0.500061-5.125626 0.750092-10.251251 1.500183-15.501892 2.125259-6.000733 0.500061-12.12648 0.875107-18.252228 0.875107-12.501526 0-24.753022-1.250153-36.504456-3.375412v357.293615c0 29.253571 24.628006 53.131486 54.881699 53.131486h841.227689c30.253693 0 54.881699-23.7529 54.8817-53.131486V613.574899c-11.87645 2.125259-24.00293 3.375412-36.504457 3.375412-6.250763 0-12.501526-0.375046-18.502258-0.875107z m0 0M189.869926 109.763399h804.598218c30.253693 0 54.881699-24.628006 54.881699-54.8817S1024.721837 0 994.468144 0H189.869926C159.491218 0 134.988227 24.628006 134.988227 54.881699s24.628006 54.881699 54.881699 54.8817z m0 0M1074.477911 164.645098H109.860159L6.9726 420.676352c0 80.759858 65.507997 146.267855 146.267855 146.267855s146.267855-65.507997 146.267855-146.267855c0 80.759858 65.507997 146.267855 146.267855 146.267855s146.267855-65.507997 146.267855-146.267855c0 80.759858 65.507997 146.267855 146.267855 146.267855s146.267855-65.507997 146.267855-146.267855c0 80.759858 65.507997 146.267855 146.267855 146.267855s146.267855-65.507997 146.267855-146.267855l-102.762545-256.031254h0.125016z m0 0" p-id="6703" fill="#2888cf"></path></svg>